<mxfile host="app.diagrams.net" modified="2021-10-06T19:23:26.853Z" agent="5.0 (Windows)" etag="cMX-ge_xJfJXEH6f2ZlS" version="14.8.0" type="github">
  <diagram id="1HEpcO4DPhFORU9fRaos" name="Page-1">
    <mxGraphModel dx="1038" dy="536" grid="1" gridSize="10" guides="1" tooltips="1" connect="1" arrows="1" fold="1" page="1" pageScale="1" pageWidth="850" pageHeight="1100" math="0" shadow="0">
      <root>
        <mxCell id="0" />
        <mxCell id="1" parent="0" />
        <mxCell id="hevnwnW_VP5BSD5cbGkB-1" value="PeopleSoftELM" style="ellipse;shape=cloud;whiteSpace=wrap;html=1;" vertex="1" parent="1">
          <mxGeometry x="130" y="60" width="190" height="130" as="geometry" />
        </mxCell>
        <mxCell id="hevnwnW_VP5BSD5cbGkB-3" value="LSApp ETL" style="strokeWidth=2;html=1;shape=mxgraph.flowchart.multi-document;whiteSpace=wrap;" vertex="1" parent="1">
          <mxGeometry x="80" y="285" width="119" height="80" as="geometry" />
        </mxCell>
        <mxCell id="hevnwnW_VP5BSD5cbGkB-4" value="" style="endArrow=classic;html=1;exitX=0.55;exitY=0.95;exitDx=0;exitDy=0;exitPerimeter=0;entryX=0.5;entryY=0;entryDx=0;entryDy=0;entryPerimeter=0;" edge="1" parent="1" source="hevnwnW_VP5BSD5cbGkB-1" target="hevnwnW_VP5BSD5cbGkB-3">
          <mxGeometry width="50" height="50" relative="1" as="geometry">
            <mxPoint x="400" y="300" as="sourcePoint" />
            <mxPoint x="450" y="250" as="targetPoint" />
          </mxGeometry>
        </mxCell>
        <mxCell id="hevnwnW_VP5BSD5cbGkB-5" value="CSV Export" style="edgeLabel;html=1;align=center;verticalAlign=middle;resizable=0;points=[];" vertex="1" connectable="0" parent="hevnwnW_VP5BSD5cbGkB-4">
          <mxGeometry x="-0.2699" y="1" relative="1" as="geometry">
            <mxPoint as="offset" />
          </mxGeometry>
        </mxCell>
        <mxCell id="hevnwnW_VP5BSD5cbGkB-14" style="edgeStyle=orthogonalEdgeStyle;rounded=0;orthogonalLoop=1;jettySize=auto;html=1;exitX=0.875;exitY=0.5;exitDx=0;exitDy=0;exitPerimeter=0;entryX=0.5;entryY=1;entryDx=0;entryDy=0;entryPerimeter=0;" edge="1" parent="1" source="hevnwnW_VP5BSD5cbGkB-6" target="hevnwnW_VP5BSD5cbGkB-10">
          <mxGeometry relative="1" as="geometry">
            <mxPoint x="590" y="400" as="targetPoint" />
          </mxGeometry>
        </mxCell>
        <mxCell id="hevnwnW_VP5BSD5cbGkB-16" value="JSON Feed" style="edgeLabel;html=1;align=center;verticalAlign=middle;resizable=0;points=[];" vertex="1" connectable="0" parent="hevnwnW_VP5BSD5cbGkB-14">
          <mxGeometry x="-0.2814" y="2" relative="1" as="geometry">
            <mxPoint as="offset" />
          </mxGeometry>
        </mxCell>
        <mxCell id="hevnwnW_VP5BSD5cbGkB-6" value="NIKep" style="ellipse;shape=cloud;whiteSpace=wrap;html=1;" vertex="1" parent="1">
          <mxGeometry x="220" y="380" width="120" height="80" as="geometry" />
        </mxCell>
        <mxCell id="hevnwnW_VP5BSD5cbGkB-7" value="" style="endArrow=classic;html=1;exitX=0.5;exitY=0.88;exitDx=0;exitDy=0;exitPerimeter=0;entryX=0.07;entryY=0.4;entryDx=0;entryDy=0;entryPerimeter=0;" edge="1" parent="1" source="hevnwnW_VP5BSD5cbGkB-3" target="hevnwnW_VP5BSD5cbGkB-6">
          <mxGeometry width="50" height="50" relative="1" as="geometry">
            <mxPoint x="110" y="320" as="sourcePoint" />
            <mxPoint x="220" y="388" as="targetPoint" />
          </mxGeometry>
        </mxCell>
        <mxCell id="hevnwnW_VP5BSD5cbGkB-8" value="JSON Feed" style="edgeLabel;html=1;align=center;verticalAlign=middle;resizable=0;points=[];" vertex="1" connectable="0" parent="hevnwnW_VP5BSD5cbGkB-7">
          <mxGeometry x="-0.3058" y="2" relative="1" as="geometry">
            <mxPoint x="-2" y="19" as="offset" />
          </mxGeometry>
        </mxCell>
        <mxCell id="hevnwnW_VP5BSD5cbGkB-9" value="&lt;div&gt;PSA Wordpress Network&lt;br&gt;&lt;/div&gt;&lt;div&gt;LearningHUB&lt;/div&gt;&lt;div&gt;&lt;br&gt;&lt;/div&gt;" style="ellipse;shape=cloud;whiteSpace=wrap;html=1;" vertex="1" parent="1">
          <mxGeometry x="460" y="155" width="250" height="210" as="geometry" />
        </mxCell>
        <mxCell id="hevnwnW_VP5BSD5cbGkB-10" value="Custom wordpress plugin" style="shape=cylinder3;whiteSpace=wrap;html=1;boundedLbl=1;backgroundOutline=1;size=15;" vertex="1" parent="1">
          <mxGeometry x="560" y="310" width="60" height="80" as="geometry" />
        </mxCell>
      </root>
    </mxGraphModel>
  </diagram>
</mxfile>
